<?xml version="1.0" encoding="UTF-8"?><svg id="Layer_1" xmlns="http://www.w3.org/2000/svg" viewBox="0 0 32 32"><defs><style>.cls-1{fill:none;}.cls-1,.cls-2,.cls-3{stroke-width:0px;}.cls-4{font-family:Poppins-SemiBold, 'Poppins SemiBold';font-size:6.83px;font-weight:600;letter-spacing:.2em;}.cls-4,.cls-5{isolation:isolate;}.cls-4,.cls-3{fill:#fff;}.cls-2{fill:#e42527;}</style></defs><rect class="cls-2" width="32" height="32"/><path class="cls-3" d="m14.44,17.34c-.22,0-.45-.05-.67-.14l-4.63-2.06c-.83-.37-1.2-1.34-.83-2.17l2.06-4.63c.37-.83,1.34-1.2,2.17-.83l4.63,2.06c.83.37,1.2,1.34.83,2.17l-2.06,4.63c-.26.59-.85.97-1.5.97Zm-.28-1.01c.35.16.76,0,.92-.35l2.06-4.63c.16-.35,0-.76-.35-.92l-4.63-2.06c-.35-.16-.76,0-.92.35l-2.06,4.63c-.16.35,0,.76.35.92l4.63,2.06Z"/><path class="cls-3" d="m28.95,17.35h-5.06c-.9,0-1.64-.74-1.64-1.64v-5.06c0-.9.74-1.64,1.64-1.64h5.06c.9,0,1.64.74,1.64,1.64v5.06c0,.9-.74,1.64-1.64,1.64Zm-5.06-7.4c-.38,0-.7.31-.7.7v5.06c0,.38.31.7.7.7h5.06c.38,0,.7-.31.7-.7v-5.06c0-.38-.31-.7-.7-.7h-5.06Z"/><path class="cls-3" d="m9.98,11.57l-.68,1.53s-.02.03-.03.05l.26,1.64c.06.38-.2.73-.57.79l-5,.81c-.37.06-.73-.19-.79-.56,0,0,0,0,0,0l-.81-5c-.06-.37.19-.73.56-.79,0,0,0,0,0,0l5-.81c.38-.06.73.2.8.58l.27,1.66.7-1.58-.04-.22c-.15-.89-.99-1.5-1.88-1.36l-5,.81c-.43.07-.81.3-1.07.66-.26.35-.36.79-.29,1.22l.81,5c.07.44.3.81.66,1.07.28.2.61.31.96.31.09,0,.17,0,.26-.02l5-.81c.89-.15,1.5-.99,1.36-1.88l-.49-3.06h0Z"/><path class="cls-3" d="m15.98,13.96l.73-1.65-.21-1.53c-.03-.18.02-.36.14-.51s.27-.24.46-.26l5.02-.68s.06,0,.09,0c.15,0,.29.05.42.14.02.02.04.04.06.06.23-.24.52-.4.84-.47-.09-.13-.2-.24-.33-.34-.35-.26-.78-.38-1.22-.32l-5.03.68c-.43.06-.82.28-1.08.63-.26.35-.38.78-.32,1.22l.42,3.05h0Zm8.54.85l-.66-4.86c-.37.01-.67.32-.67.69v1.43l.39,2.87c.03.18-.02.36-.14.51s-.27.24-.46.26l-5.02.68c-.18.03-.36-.02-.51-.14s-.24-.27-.26-.46l-.23-1.7-.73,1.65.03.18c.06.43.28.82.63,1.08.29.22.63.34.99.34.08,0,.15,0,.23-.01l5.01-.68c.43-.06.82-.28,1.08-.63.26-.35.38-.78.32-1.22Z"/><g class="cls-5"><text class="cls-4" transform="translate(4.71 23.84)"><tspan x="0" y="0">ZOHO</tspan></text></g><path class="cls-1" d="m0,0h32v32H0V0Z"/></svg>